<?xml version='1.0' encoding='utf-8'?>
<svg xmlns="http://www.w3.org/2000/svg" width="91.44mm" height="91.44mm" version="1.1" style="shape-rendering:geometricPrecision; text-rendering:geometricPrecision; image-rendering:optimizeQuality; fill-rule:evenodd; clip-rule:evenodd" viewBox="0 0 9144 9144"> <defs> <style type="text/css">  .fil0 {fill:#FFF} .fil1 {fill:#011627;fill-rule:nonzero}  </style> </defs> <g id="Layer_x0020_1"> <metadata id="CorelCorpID_0Corel-Layer"/> <g id="_2744577803952"> <polygon class="fil0" points="0,0 9144,0 9144,9144 0,9144 "/> <path class="fil1" d="M2543 6174l3412 0 0 -407 0 -2170 -2854 0 -558 0 0 2577zm1618 -2055c0,-49 39,-88 88,-88 49,0 88,39 88,88l0 679 680 0c49,0 88,39 88,88 0,49 -39,88 -88,88l-680 0 0 679c0,49 -39,88 -88,88 -49,0 -88,-39 -88,-88l0 -679 -679 0c-49,0 -88,-39 -88,-88 0,-49 39,-88 88,-88l679 0 0 -679zm-1060 -1326l3588 0c49,0 88,39 88,88l0 2886c0,49 -39,88 -88,88l-558 0 0 407c0,49 -39,88 -88,88l-3588 0c-49,0 -88,-39 -88,-88l0 -2753c0,-49 39,-88 88,-88l558 0 0 -540c0,-49 39,-88 88,-88zm3500 176l-3412 0 0 452 2854 0c49,0 88,39 88,88l0 2170 470 0 0 -2710z"/> </g> </g> </svg>